<?xml version="1.0" standalone="no"?>
<!DOCTYPE svg PUBLIC "-//W3C//DTD SVG 20010904//EN"
 "http://www.w3.org/TR/2001/REC-SVG-20010904/DTD/svg10.dtd">
<svg version="1.0" xmlns="http://www.w3.org/2000/svg"
 width="2000.000000pt" height="2000.000000pt" viewBox="0 0 2000.000000 2000.000000"
 preserveAspectRatio="xMidYMid meet">

<g transform="translate(0.000000,2000.000000) scale(0.100000,-0.100000)"
fill="#000000" stroke="none">
<path d="M0 18165 c0 -1823 0 -1835 20 -1835 24 0 25 -3 2 -43 -15 -29 -17
-76 -19 -522 -1 -269 1 -483 4 -475 3 8 14 22 23 30 9 8 20 25 24 38 4 12 14
22 21 22 28 0 65 24 65 42 0 10 4 18 9 18 5 0 13 10 17 22 9 31 29 48 54 48
25 0 50 22 50 44 0 9 4 16 8 16 5 0 14 11 20 25 7 14 23 30 37 37 14 6 25 17
25 24 0 8 11 16 25 20 13 3 27 15 30 25 4 10 10 19 15 19 4 0 11 12 15 27 3
15 21 48 40 73 18 25 47 73 64 107 17 34 36 65 42 68 6 4 28 45 50 91 21 47
49 99 63 117 13 17 38 61 56 97 18 36 41 77 51 92 11 15 36 60 55 100 20 40
40 75 43 78 4 3 43 68 87 145 43 77 84 149 91 160 7 11 15 27 19 35 4 8 13 22
20 30 7 8 25 38 40 65 41 76 94 168 104 185 25 39 140 232 140 236 0 2 15 26
34 52 18 27 37 58 40 70 4 12 13 28 20 34 7 7 25 36 41 63 34 60 69 115 161
254 38 57 80 122 94 145 32 53 84 126 135 189 22 27 45 58 51 68 6 11 26 36
45 57 19 20 52 60 74 87 22 28 52 63 68 79 15 16 27 35 27 42 0 7 6 17 13 21
7 4 49 50 92 101 l78 93 30 -36 c16 -19 42 -42 57 -50 37 -19 110 -19 137 0
31 21 65 72 54 79 -5 4 -19 -9 -31 -28 -53 -87 -170 -32 -170 80 0 65 28 84
123 84 75 0 77 1 77 24 0 14 -11 38 -25 54 -14 17 -25 34 -25 38 0 5 65 74
145 154 81 80 181 180 223 224 42 43 86 86 96 95 67 56 200 191 279 281 50 58
103 116 117 130 14 14 38 40 54 58 l30 32 -1777 0 -1777 0 0 -1835z m2590 778
c0 -20 -5 -23 -35 -23 -32 0 -35 2 -25 19 5 11 17 27 26 36 20 19 34 6 34 -32z"/>
<path d="M5899 19978 c-14 -13 -40 -36 -59 -51 -64 -53 -414 -382 -469 -441
-20 -21 -49 -51 -64 -65 -16 -14 -38 -35 -50 -47 -40 -37 -271 -280 -347 -364
-41 -46 -81 -88 -88 -94 -13 -11 -35 -34 -114 -120 -21 -23 -38 -44 -38 -48 0
-5 -4 -8 -10 -8 -6 0 -10 55 -10 145 0 80 -1 145 -2 145 -2 0 -28 -9 -58 -20
-32 -11 -46 -19 -32 -19 22 -1 22 -3 22 -146 l0 -145 -25 0 c-14 0 -25 -5 -25
-10 0 -6 15 -8 40 -4 22 4 40 4 40 0 0 -4 -19 -26 -42 -50 -24 -24 -49 -52
-57 -64 -8 -11 -18 -19 -22 -16 -4 2 -10 -4 -14 -15 -3 -11 -12 -22 -20 -25
-8 -3 -15 -11 -15 -18 0 -7 -21 -35 -45 -63 -25 -27 -60 -66 -78 -86 -18 -20
-35 -35 -39 -33 -4 2 -9 -5 -13 -16 -3 -11 -11 -20 -16 -20 -5 0 -9 -7 -9 -16
0 -8 -6 -21 -12 -29 -7 -7 -26 -29 -43 -49 -16 -21 -41 -50 -55 -65 -14 -16
-43 -50 -65 -75 -22 -26 -50 -58 -62 -71 -13 -13 -23 -30 -23 -38 0 -8 -9 -22
-20 -32 -11 -10 -20 -23 -20 -29 0 -7 -20 -32 -45 -56 -25 -24 -45 -51 -45
-60 0 -8 -11 -27 -25 -42 -20 -21 -24 -34 -19 -54 5 -19 4 -25 -5 -20 -6 4
-11 3 -11 -2 0 -6 -11 -13 -25 -16 -24 -6 -36 -36 -15 -36 6 0 10 -7 10 -15 0
-8 -4 -15 -10 -15 -5 0 -10 -7 -10 -15 0 -11 7 -14 25 -9 21 5 25 3 25 -15 0
-12 -4 -21 -9 -21 -5 0 -12 -18 -16 -40 -4 -22 -11 -40 -16 -40 -5 0 -9 -7 -9
-15 0 -8 -4 -15 -10 -15 -5 0 -10 -9 -10 -20 0 -11 -4 -20 -10 -20 -5 0 -10
-9 -10 -20 0 -17 7 -20 41 -20 37 0 47 6 107 68 91 91 117 109 59 40 -27 -31
-52 -58 -55 -60 -4 -2 -81 -86 -172 -188 -91 -101 -188 -209 -216 -240 -276
-300 -789 -933 -989 -1220 -11 -15 -70 -100 -131 -187 -114 -162 -354 -521
-354 -530 0 -2 -13 -23 -28 -46 -30 -43 -189 -307 -250 -412 -19 -33 -43 -75
-53 -92 -50 -87 -58 -103 -51 -103 5 0 18 17 29 38 21 38 80 136 195 322 151
245 404 620 566 839 47 64 110 150 141 191 30 41 82 109 116 151 33 42 73 94
89 114 26 34 30 36 39 19 5 -11 11 -20 12 -22 4 -5 135 132 135 142 0 4 22 34
48 65 27 31 61 79 77 108 15 29 42 67 59 86 36 40 66 89 66 109 0 10 -3 9 -10
-2 -5 -8 -10 -10 -10 -5 1 18 181 236 241 290 30 27 24 11 -8 -23 -7 -7 -13
-16 -13 -20 0 -4 -24 -33 -52 -64 -76 -83 -80 -88 -68 -88 5 0 10 -9 10 -20 0
-11 -4 -20 -9 -20 -5 0 -12 -9 -16 -19 -3 -11 -15 -23 -26 -26 -41 -13 -16
-25 56 -25 48 0 75 4 75 11 0 7 22 10 63 8 34 -1 87 -2 118 -1 54 2 57 4 85
45 16 23 34 48 41 55 15 15 43 16 43 1 0 -13 42 46 53 74 3 9 11 17 17 17 6 0
8 5 5 11 -4 5 3 18 14 28 12 10 21 23 21 30 0 6 7 11 16 11 10 0 14 5 10 16
-3 9 5 26 19 42 14 15 25 30 25 34 0 5 7 8 16 8 11 0 14 6 9 21 -5 15 -4 19 4
15 7 -4 11 1 11 13 0 12 5 21 10 21 6 0 10 7 10 16 0 18 23 44 40 44 19 0 40
27 46 59 4 17 10 31 15 31 5 0 9 8 9 18 0 10 9 24 20 32 11 8 20 20 20 27 0 7
5 13 10 13 14 0 12 -28 -2 -33 -7 -2 -10 -8 -6 -12 4 -4 14 0 23 9 9 9 20 16
25 16 5 0 12 9 15 20 6 20 45 29 45 10 0 -5 12 -10 28 -10 30 0 82 39 82 61 0
8 10 21 21 29 12 8 27 21 35 28 7 6 16 12 19 12 4 0 19 13 33 28 32 34 63 52
91 52 12 0 21 4 21 10 0 5 12 13 27 16 27 7 123 96 123 115 0 5 14 12 30 16
17 3 30 9 30 14 0 5 8 9 18 9 11 0 41 20 68 45 27 25 66 61 87 80 22 19 43 35
48 35 5 0 24 16 41 35 17 20 46 42 65 50 19 8 51 32 71 53 21 22 48 42 60 46
12 4 22 12 22 17 0 5 8 9 18 9 10 0 24 9 32 20 8 11 22 20 31 20 10 0 28 13
41 28 17 20 48 36 111 56 48 15 87 32 87 37 0 5 5 9 11 9 7 0 19 8 28 18 9 11
28 22 44 26 15 3 27 11 27 16 0 6 8 10 18 10 10 0 24 9 32 20 8 11 18 20 23
20 5 0 21 13 36 29 14 15 36 31 49 35 12 4 22 11 22 16 0 5 8 11 18 14 9 3 29
17 45 31 15 14 27 23 27 19 0 -4 9 2 20 14 12 12 25 22 30 22 5 0 15 6 22 13
8 6 21 17 29 22 65 41 150 98 179 119 19 14 64 42 100 63 36 20 109 68 164
106 54 37 111 74 126 82 16 8 34 20 42 28 7 7 29 23 48 37 101 69 350 294 350
317 0 5 18 27 41 48 23 22 58 63 79 90 32 42 82 96 220 240 59 60 149 127 161
119 5 -3 9 2 9 11 0 9 3 14 8 12 4 -3 18 8 32 24 45 54 100 111 100 104 0 -6
15 7 115 100 l70 65 -971 0 -971 0 -24 -22z m-1939 -2592 c0 -2 -31 -37 -70
-77 -38 -41 -69 -78 -70 -82 0 -5 7 -1 16 7 8 9 21 16 28 16 8 0 19 7 26 15
17 20 66 19 74 -1 9 -24 7 -36 -5 -29 -5 4 -18 -3 -28 -14 -10 -12 -23 -21
-30 -21 -6 0 -16 -9 -23 -20 -7 -11 -19 -20 -26 -20 -7 0 -20 -7 -28 -15 -9
-8 -23 -15 -33 -15 -10 0 -23 -11 -29 -25 -6 -14 -18 -25 -26 -25 -8 0 -21 -8
-28 -17 -7 -10 -30 -30 -50 -44 -42 -28 -102 -84 -166 -153 -42 -45 -84 -67
-46 -23 153 172 231 257 357 390 136 144 157 164 157 153z m-1110 -1276 c0 -5
-11 -20 -24 -33 -12 -13 -26 -30 -29 -38 -5 -12 -6 -12 -6 1 0 8 12 29 27 47
30 36 32 37 32 23z"/>
<path d="M10140 19975 c-19 -14 -40 -25 -46 -25 -7 0 -14 -4 -16 -8 -1 -5 -15
-15 -30 -23 -91 -48 -192 -107 -262 -155 -123 -82 -127 -85 -187 -128 -30 -23
-68 -50 -83 -61 -16 -11 -33 -25 -40 -30 -6 -6 -29 -24 -51 -40 -22 -16 -54
-41 -70 -55 -17 -14 -51 -41 -75 -60 -83 -66 -167 -140 -363 -318 -38 -34 -83
-70 -101 -79 -80 -40 -366 -295 -667 -593 -140 -138 -416 -445 -469 -520 -13
-19 -65 -84 -115 -145 -50 -60 -112 -138 -138 -172 -26 -34 -53 -68 -60 -75
-36 -37 -206 -273 -264 -366 -36 -58 -143 -265 -143 -277 0 -2 -17 -40 -38
-83 -22 -43 -44 -92 -50 -108 -6 -16 -20 -54 -32 -84 -35 -93 -70 -202 -70
-222 0 -25 23 -33 52 -17 49 26 283 250 382 364 103 121 208 251 258 322 15
21 53 74 85 118 33 44 94 134 138 200 132 201 147 224 164 242 9 10 41 50 70
88 51 66 81 96 213 220 29 28 87 86 128 131 87 93 122 120 65 48 -21 -27 -42
-51 -45 -54 -14 -13 -200 -242 -316 -390 -240 -304 -508 -667 -739 -1000 -127
-182 -475 -703 -546 -817 -256 -411 -364 -580 -376 -589 -9 -8 -26 -9 -55 -2
-49 11 -127 1 -150 -19 -16 -15 -224 -40 -236 -29 -3 4 4 16 14 29 11 12 29
36 39 52 18 29 94 124 364 455 74 91 150 184 169 208 19 23 33 45 30 48 -3 2
-56 -54 -117 -125 -61 -72 -117 -136 -124 -143 -17 -18 -128 -154 -215 -263
-188 -234 -215 -265 -247 -269 -16 -3 -79 -10 -140 -16 -341 -32 -763 -85
-774 -96 -7 -6 8 -5 306 15 384 27 573 35 573 23 0 -6 -44 -13 -97 -17 -153
-11 -545 -51 -593 -61 -21 -5 -22 -7 -9 -15 10 -5 61 -5 125 1 163 13 514 24
514 15 0 -4 -23 -40 -50 -79 -264 -374 -591 -859 -715 -1061 -309 -502 -479
-795 -675 -1160 -23 -44 -55 -102 -70 -130 -61 -110 -230 -448 -226 -453 3 -2
39 63 80 144 100 198 175 338 311 579 61 110 123 220 137 245 321 576 858
1396 1196 1825 l78 100 115 2 c62 1 162 4 222 7 59 3 107 3 107 -1 0 -3 -17
-33 -38 -67 -21 -34 -58 -97 -82 -141 -24 -44 -62 -111 -85 -150 -159 -266
-460 -801 -765 -1360 -27 -50 -87 -164 -260 -495 -255 -488 -653 -1299 -882
-1795 -143 -310 -451 -1015 -445 -1021 1 -2 63 133 137 299 144 325 328 730
432 947 35 74 104 218 153 320 487 1019 1309 2548 1779 3309 l101 163 225 -6
c245 -8 510 -9 517 -3 9 10 -215 37 -309 38 -57 0 -166 6 -243 12 -125 11
-140 14 -143 31 -4 19 2 19 164 13 93 -4 228 -14 299 -23 191 -22 293 -28 275
-15 -8 6 -24 11 -35 11 -20 1 -20 1 -1 12 65 37 1360 -33 1403 -76 4 -3 -7 -6
-23 -7 -70 -1 20 -17 191 -33 99 -9 225 -21 280 -26 55 -5 152 -12 215 -16
153 -8 277 -27 407 -65 60 -17 117 -33 128 -35 11 -2 52 -8 90 -15 39 -6 102
-20 140 -31 39 -10 129 -31 202 -46 73 -15 135 -31 139 -35 4 -4 21 -7 38 -7
55 0 390 -83 406 -100 12 -13 83 -40 105 -40 13 0 36 -5 50 -10 15 -6 32 -7
38 -3 17 10 142 5 202 -8 28 -6 79 -21 115 -34 36 -13 92 -26 124 -30 83 -10
118 -26 48 -22 -28 1 -52 -1 -52 -5 0 -10 285 -76 360 -83 62 -6 64 -6 38 8
-15 9 -35 18 -45 21 -51 14 107 -10 287 -45 121 -24 216 -37 233 -33 16 3 40
1 55 -4 15 -5 47 -16 72 -23 40 -11 118 -45 130 -56 2 -2 -2 -8 -10 -14 -13
-8 -13 -11 3 -23 29 -23 47 2 -248 -327 -213 -236 -278 -310 -469 -534 -173
-203 -191 -221 -229 -229 -32 -8 -37 -11 -19 -14 13 -2 22 -9 20 -17 -2 -8
-45 -61 -97 -119 l-94 -106 -91 0 c-125 0 -143 -16 -27 -25 106 -8 106 -7 16
-102 -47 -50 -56 -56 -65 -42 -11 19 -32 16 -145 -20 -56 -17 -58 -19 -32 -26
22 -6 25 -10 16 -21 -6 -8 -19 -14 -28 -14 -9 0 -21 -4 -26 -9 -10 -9 -57 -16
-160 -25 -53 -4 -62 -2 -77 17 l-17 22 -48 -47 c-30 -30 -61 -50 -82 -54 -31
-7 -34 -5 -27 12 26 62 -6 68 -68 15 -26 -23 -59 -43 -74 -46 -15 -4 -49 -13
-76 -21 -26 -7 -62 -14 -80 -14 -39 -1 -58 -5 -301 -78 -271 -80 -291 -85
-360 -87 -33 -1 -93 -12 -133 -25 -40 -13 -75 -20 -79 -17 -3 4 26 73 66 153
39 81 70 148 69 150 -2 1 -39 -68 -83 -154 -88 -172 -72 -156 -218 -222 -37
-16 -71 -30 -77 -30 -5 0 -26 -7 -47 -16 -21 -9 -47 -21 -58 -25 -205 -86
-341 -148 -552 -256 -100 -51 -188 -93 -195 -93 -10 0 -9 3 1 9 8 5 11 16 8
25 -9 22 -67 13 -163 -24 l-72 -27 -6 37 c-3 21 -2 57 3 81 5 24 16 77 24 117
8 40 20 79 27 87 18 21 6 29 -19 13 -15 -9 -20 -20 -16 -35 5 -23 -43 -222
-69 -284 -19 -45 -21 -46 -141 -99 -114 -50 -218 -112 -240 -143 -13 -19 -18
-20 -65 -9 -107 25 -119 11 -29 -32 57 -27 60 -30 44 -43 -18 -12 -17 -13 6
-14 16 -1 10 -5 -20 -13 -41 -11 -73 -38 -60 -50 3 -3 18 -7 32 -8 15 -1 27
-5 27 -8 0 -6 -170 -119 -220 -146 -19 -10 -40 -23 -47 -29 -6 -5 -47 -30 -89
-55 -43 -25 -100 -67 -128 -95 -89 -87 -159 -131 -296 -182 -36 -14 -96 -39
-135 -57 -46 -22 -113 -40 -195 -55 -69 -13 -140 -29 -158 -37 -18 -8 -54 -14
-80 -15 -60 -1 -46 -6 43 -15 67 -7 69 -7 35 -17 -19 -5 -97 -7 -172 -4 -76 2
-138 1 -138 -3 0 -13 58 -20 214 -27 178 -7 227 -16 151 -27 -28 -4 -57 -12
-65 -17 -17 -11 137 -6 185 6 29 7 29 7 -8 -19 -34 -24 -47 -26 -135 -27 -100
0 -101 -4 -8 -30 l48 -14 -62 -50 c-84 -68 -204 -141 -257 -157 -46 -13 -54
-24 -25 -31 9 -3 4 -5 -13 -5 -28 0 -68 -8 -160 -31 -22 -5 -41 -15 -43 -20
-5 -14 -49 -14 -54 -1 -2 7 -32 5 -88 -5 -125 -22 -123 -22 -116 23 4 20 13
64 21 97 47 205 64 277 75 330 7 33 28 121 47 195 19 74 38 153 43 176 11 53
114 427 145 529 54 175 138 453 153 505 23 80 234 706 280 835 149 408 320
857 372 969 11 25 20 47 20 51 0 9 40 97 90 195 27 53 51 113 54 135 3 22 3
31 -1 20 -3 -11 -8 -22 -12 -25 -3 -3 -20 -32 -37 -65 -17 -33 -41 -80 -54
-104 -13 -24 -24 -55 -25 -70 -1 -14 -13 -48 -25 -76 -40 -89 -47 -107 -153
-370 -57 -143 -116 -291 -130 -330 -14 -38 -39 -108 -57 -155 -193 -518 -413
-1200 -570 -1770 -34 -124 -70 -250 -81 -281 -10 -31 -19 -64 -19 -73 0 -19
-63 -261 -86 -334 -8 -24 -28 -105 -44 -180 -17 -76 -37 -161 -46 -189 l-15
-53 -57 0 c-60 0 -100 -14 -72 -24 8 -3 38 -7 65 -8 37 -2 50 -7 50 -18 0 -8
-7 -13 -15 -11 -26 6 -152 21 -225 26 l-70 5 47 -14 c26 -8 94 -19 150 -26 57
-6 106 -15 109 -18 6 -6 -18 -139 -49 -271 -12 -51 -3 -40 -118 -133 -50 -40
-131 -108 -180 -152 -112 -99 -203 -157 -313 -202 -126 -52 -163 -72 -196
-110 -17 -19 -38 -34 -47 -34 -9 0 -19 -4 -23 -9 -3 -5 -36 -12 -73 -16 -41
-4 -85 -16 -113 -31 -32 -16 -63 -24 -97 -24 -60 0 -82 -7 -82 -26 0 -10 -13
-14 -42 -14 -24 0 -50 -4 -58 -10 -11 -7 -9 -11 13 -19 16 -6 31 -11 34 -11 4
0 14 -6 22 -14 10 -8 51 -17 101 -20 97 -8 168 -23 190 -42 23 -20 129 -73
175 -88 55 -18 184 -54 218 -61 33 -7 31 -25 -11 -90 -25 -40 -25 -40 28 13
71 68 107 71 175 12 53 -46 59 -48 50 -17 -7 21 -6 21 17 -4 12 -14 41 -35 63
-48 29 -15 45 -34 57 -64 18 -42 15 -92 -5 -80 -7 4 -8 0 -3 -13 5 -10 13 -48
20 -84 8 -51 15 -65 27 -62 15 3 23 -8 125 -170 46 -73 151 -213 180 -240 70
-65 96 -81 105 -67 7 11 12 12 29 2 32 -21 32 -16 -1 49 -17 34 -32 74 -33 88
-2 34 -74 207 -103 248 -31 42 -53 95 -53 128 0 40 -37 98 -86 135 -66 50
-103 100 -97 133 l6 28 28 -32 c33 -36 38 -21 9 32 -16 31 -17 38 -5 48 8 7
21 10 29 7 11 -4 15 1 15 21 1 81 -1 107 -8 120 -9 17 6 72 19 72 11 0 23 -37
16 -48 -3 -5 -1 -22 4 -38 6 -23 9 -10 10 56 4 142 4 142 85 163 39 9 135 40
215 68 80 27 174 59 210 69 36 10 153 54 260 97 192 78 496 180 507 170 3 -3
-7 -38 -21 -78 -31 -88 -33 -107 -5 -54 53 100 131 226 142 230 7 1 44 12 82
24 39 12 98 21 132 21 53 0 64 3 74 21 18 34 92 61 143 54 51 -8 86 7 86 36 0
12 10 23 28 30 34 13 75 32 237 109 72 34 149 71 173 82 23 10 42 24 42 31 0
8 4 7 9 -2 5 -8 14 -53 21 -100 35 -277 34 -272 80 -491 58 -276 61 -349 26
-605 -42 -299 -44 -485 -10 -740 32 -237 125 -557 215 -737 16 -32 29 -62 29
-68 0 -19 50 -122 81 -168 16 -24 29 -47 29 -53 0 -5 5 -9 11 -9 7 0 9 8 5 20
-3 11 -8 28 -11 38 -4 10 5 28 21 45 30 32 29 22 20 368 -2 107 -1 212 4 233
8 34 6 38 -18 47 l-27 11 30 24 c17 13 33 24 38 24 4 0 7 7 7 16 0 9 11 29 25
46 14 16 25 34 25 39 0 5 -20 9 -44 9 -25 0 -47 4 -51 9 -5 9 36 43 65 54 8 3
-11 3 -42 0 -80 -8 -74 8 15 45 65 28 95 38 202 72 101 31 338 93 445 115 135
29 161 38 198 72 13 12 49 27 79 33 120 25 309 61 328 62 11 1 23 6 26 11 3 5
123 10 265 11 171 1 275 7 305 15 l46 13 6 166 c13 336 68 535 196 704 127
168 267 238 471 238 106 0 197 -24 283 -74 67 -39 179 -152 229 -231 103 -159
116 -206 195 -679 6 -40 14 -53 38 -68 81 -49 115 -59 223 -64 72 -4 165 -18
285 -45 238 -53 327 -84 327 -113 0 -7 9 -21 20 -31 11 -10 20 -22 20 -27 0
-5 11 -19 25 -32 14 -13 25 -32 25 -43 0 -25 47 -60 97 -72 21 -5 70 -19 108
-31 39 -12 122 -36 185 -55 165 -48 225 -70 286 -105 30 -18 54 -33 54 -36 0
-6 -90 7 -157 23 -89 21 -96 12 -19 -22 36 -17 66 -36 66 -44 0 -9 -6 -11 -17
-6 -10 4 -38 9 -63 12 -42 5 -44 4 -25 -11 22 -17 115 -22 115 -6 0 6 7 10 15
10 8 0 15 -7 15 -16 0 -8 4 -13 9 -10 14 9 110 -14 168 -40 54 -24 113 -89
113 -125 0 -21 24 -38 98 -70 65 -27 63 -29 93 96 11 49 38 142 59 205 21 63
43 140 49 170 6 30 16 80 22 110 17 86 23 420 9 540 -7 58 -15 137 -20 175
-21 195 -56 384 -101 548 -16 59 -29 122 -29 140 0 18 -11 53 -25 79 -14 26
-31 71 -39 100 -21 80 -94 257 -197 477 -27 57 -49 105 -49 108 0 2 -27 58
-60 124 -87 172 -174 299 -291 423 l-104 109 55 -6 c147 -18 342 -50 382 -63
11 -3 34 -7 51 -9 127 -13 163 -18 173 -26 6 -5 53 -18 105 -29 52 -11 108
-24 124 -29 71 -21 213 -63 250 -73 97 -26 195 -62 195 -71 0 -5 -8 -22 -17
-38 -21 -36 -15 -49 45 -92 l41 -30 50 46 c28 26 57 47 65 47 25 0 110 -31
125 -45 12 -12 11 -19 -4 -52 -10 -21 -29 -54 -42 -73 -33 -49 -29 -64 21 -91
l45 -23 23 25 c31 35 98 115 113 136 11 14 17 15 36 6 13 -6 54 -25 91 -43 37
-17 85 -34 108 -37 l40 -6 -102 -63 c-57 -35 -110 -67 -118 -72 -31 -19 1 -24
46 -7 26 10 69 19 97 21 28 2 65 9 83 14 70 24 128 27 147 10 9 -9 36 -23 60
-30 23 -7 52 -20 65 -27 13 -8 32 -16 42 -18 32 -6 90 -37 103 -54 17 -24 141
-39 233 -28 59 6 79 5 103 -7 37 -20 41 -20 41 -2 0 14 22 25 75 35 54 11 24
63 -130 230 -71 77 -94 108 -90 122 4 13 1 19 -8 19 -17 0 -47 42 -47 65 0 8
-6 15 -13 15 -30 0 -403 362 -411 398 -3 15 -22 45 -43 68 -44 47 -233 210
-313 270 -110 82 -438 301 -582 389 -80 50 -168 109 -193 133 -25 23 -53 42
-61 42 -17 0 -18 14 -2 40 17 26 8 31 -34 18 -47 -14 -76 -5 -57 18 12 14 9
20 -15 39 -32 26 -67 35 -133 35 -36 0 -63 10 -136 53 -51 30 -144 77 -207
105 -193 87 -190 84 -127 125 39 26 40 27 12 21 -16 -4 -34 -10 -40 -14 -27
-20 -82 -19 -135 1 -30 11 -106 30 -168 40 -62 11 -173 40 -247 65 -128 42
-259 82 -342 104 -21 5 -99 24 -173 43 l-134 34 23 19 c58 48 59 49 10 52 -24
2 -48 7 -54 13 -18 17 -139 10 -201 -13 -51 -19 -82 -22 -224 -23 -146 -1
-328 -15 -385 -29 -11 -3 -27 -1 -34 4 -12 7 -11 13 5 36 10 15 24 34 29 42
22 34 78 97 98 109 7 5 19 20 27 34 25 45 169 218 190 229 11 6 20 16 20 23 0
7 33 50 72 97 312 368 822 940 852 957 12 6 32 9 46 6 43 -9 230 -63 328 -94
83 -26 155 -38 140 -24 -3 3 -65 26 -138 51 -156 52 -179 63 -135 64 30 0 66
-9 315 -74 170 -44 568 -175 639 -210 30 -14 63 -26 73 -26 10 0 18 -4 18 -9
0 -5 12 -11 28 -14 15 -3 63 -17 107 -32 44 -15 100 -34 125 -42 25 -8 95 -33
155 -54 115 -42 126 -40 37 6 -29 15 -51 30 -48 32 6 6 194 -33 254 -53 26 -9
108 -41 182 -71 74 -30 180 -72 235 -93 55 -21 109 -42 119 -46 35 -14 7 15
-37 38 -29 15 -37 23 -25 26 17 3 125 -47 150 -70 7 -7 29 -21 47 -32 30 -17
35 -17 43 -3 7 13 14 14 35 6 53 -20 32 0 -44 41 -117 64 -202 122 -209 142
-3 10 -14 18 -24 18 -10 0 -20 3 -22 8 -3 7 -58 35 -185 94 -36 17 -130 50
-207 73 -78 24 -194 62 -260 85 -89 31 -121 38 -132 30 -13 -11 -61 -2 -106
21 -10 5 -23 9 -29 9 -15 0 -151 91 -145 97 5 5 22 0 136 -35 36 -11 115 -34
175 -52 61 -17 126 -38 145 -47 38 -16 217 -82 315 -116 33 -11 69 -23 80 -27
98 -35 145 -48 145 -42 0 9 -136 72 -155 72 -7 0 -15 6 -18 13 -7 19 -261 120
-586 233 -67 23 -126 45 -129 48 -3 3 -14 6 -24 6 -10 0 -26 4 -36 9 -51 29
-310 111 -392 126 -52 9 -122 23 -155 31 -33 9 -80 19 -105 24 -55 10 -463
120 -469 126 -3 2 11 20 30 40 39 41 33 41 204 -5 61 -16 154 -41 207 -55 53
-15 168 -51 255 -82 198 -70 284 -97 290 -91 10 11 -147 77 -184 77 -12 0 -25
5 -28 10 -3 6 -15 10 -27 10 -20 0 -96 23 -153 46 -16 6 -46 17 -65 23 -51 16
-211 62 -357 102 -79 22 -99 38 -70 56 6 4 30 30 52 58 22 27 96 110 164 185
115 125 62 75 -116 -110 -124 -130 -148 -150 -178 -150 -24 0 -26 -2 -15 -15
11 -13 8 -21 -21 -51 -34 -36 -35 -36 -102 -31 -57 4 -65 2 -56 -10 9 -10 9
-17 1 -25 -11 -11 -241 38 -387 83 -33 10 -91 25 -130 35 -79 19 -125 39 -125
55 0 11 24 10 150 -7 19 -2 28 -1 20 2 -8 3 -24 9 -35 14 -130 53 -151 60
-285 86 -127 25 -155 34 -80 27 36 -3 72 -9 80 -13 8 -4 74 -15 145 -25 72 -9
177 -25 235 -35 154 -27 185 -31 174 -20 -5 5 -61 22 -124 39 -63 16 -135 36
-160 44 -116 37 -350 89 -420 92 -67 4 -71 5 -64 17 5 8 2 9 -12 3 -24 -11
-76 -9 -129 4 -22 5 -68 15 -103 22 -70 13 -85 25 -50 38 17 7 19 10 8 14 -16
6 -125 37 -202 57 -27 7 -48 17 -48 21 0 12 3 12 111 -10 52 -10 117 -22 144
-25 46 -5 48 -4 25 8 -14 7 -50 19 -80 26 -30 7 -65 16 -78 21 -13 5 -34 9
-47 9 -14 0 -25 5 -25 10 0 13 17 13 103 -4 118 -23 159 -28 152 -16 -3 5 -15
10 -26 10 -10 0 -19 5 -19 10 0 6 -13 10 -30 10 -20 0 -30 5 -30 15 0 10 -10
15 -27 15 -16 0 -37 8 -48 16 -20 15 -20 15 0 32 12 9 189 172 395 362 206
189 517 475 690 634 374 344 817 755 950 881 52 50 225 212 385 360 1107 1031
1589 1503 2122 2082 69 75 130 129 185 166 88 58 154 118 163 148 3 10 20 20
38 24 18 4 57 15 87 25 30 10 89 26 130 35 41 10 82 21 91 26 9 4 85 26 170
48 85 23 201 54 259 70 l105 30 -1522 0 c-925 1 -1524 -3 -1528 -8 -3 -5 -49
-39 -103 -75 -103 -70 -257 -178 -282 -199 -8 -6 -43 -32 -78 -57 -158 -112
-347 -251 -454 -334 -65 -50 -139 -107 -165 -126 -27 -19 -55 -40 -63 -47 -8
-7 -40 -33 -70 -56 -173 -134 -375 -297 -405 -324 -11 -10 -90 -76 -175 -147
-85 -71 -183 -154 -217 -185 -147 -133 -186 -169 -237 -216 -30 -27 -96 -88
-147 -135 -155 -142 -1192 -1186 -1393 -1402 -158 -170 -211 -246 -236 -337
-6 -22 -17 -47 -25 -55 -8 -8 -15 -22 -15 -30 0 -9 -4 -16 -8 -16 -16 0 -52
-37 -52 -53 0 -9 -12 -28 -26 -42 -14 -14 -23 -29 -20 -33 4 -3 11 0 15 7 5 7
14 11 20 7 10 -7 59 19 73 39 4 5 8 6 8 2 0 -5 18 6 41 24 58 46 104 76 152
100 23 12 80 53 127 92 77 64 125 106 314 271 32 28 111 102 175 164 64 63
148 138 186 167 39 29 77 60 84 69 7 9 19 16 26 16 6 0 20 9 30 20 10 11 43
32 73 48 29 15 58 35 63 45 5 9 14 17 19 17 9 0 130 86 209 148 18 15 41 31
50 36 9 5 37 26 62 48 26 21 51 38 55 38 5 0 23 13 39 28 17 16 43 37 59 47
16 11 39 27 50 37 64 54 397 293 641 461 95 66 513 332 570 363 11 6 65 37
120 69 205 120 421 222 502 238 22 4 37 2 48 -9 25 -26 26 -26 -97 -155 -16
-15 -28 -33 -28 -38 0 -5 -14 -24 -31 -42 -18 -19 -55 -63 -84 -99 -29 -36
-63 -76 -76 -90 -14 -14 -45 -50 -69 -80 -62 -76 -83 -101 -97 -116 -7 -7 -13
-17 -13 -23 0 -6 -4 -11 -10 -11 -5 0 -10 -6 -10 -14 0 -8 -13 -27 -28 -44
-16 -17 -46 -56 -68 -87 -21 -32 -54 -72 -71 -90 -18 -18 -33 -37 -33 -42 0
-15 -25 -63 -32 -63 -5 0 -8 -9 -8 -19 0 -11 -9 -23 -20 -26 -14 -4 -19 -12
-15 -23 3 -10 -5 -28 -19 -43 l-24 -26 23 -13 c16 -8 41 -10 74 -6 41 5 51 4
51 -8 0 -8 -4 -18 -10 -21 -5 -3 -10 -13 -10 -22 0 -17 82 62 93 88 4 11 6 11
6 1 1 -14 -23 -45 -158 -207 -27 -33 -130 -161 -241 -300 -58 -73 -157 -197
-220 -276 -186 -232 -483 -619 -570 -741 -43 -62 -123 -171 -175 -243 -53 -71
-176 -240 -273 -375 -97 -135 -200 -277 -229 -316 -60 -80 -65 -99 -28 -90 19
5 23 3 19 -9 -4 -9 -19 -15 -36 -15 -26 0 -29 -2 -18 -15 18 -21 4 -33 -45
-37 l-40 -4 30 -12 c60 -25 61 -26 29 -29 -16 -2 -75 3 -130 12 -85 13 -259
40 -560 84 -40 6 -82 15 -95 19 -13 5 -77 12 -141 16 -65 4 -214 18 -330 33
-117 14 -260 29 -318 33 -58 5 -152 13 -210 19 -240 24 -885 38 -1580 33 -157
-1 -337 0 -400 3 -229 10 -611 14 -606 6 3 -4 43 -11 90 -14 46 -4 95 -11 108
-16 44 -17 -7 -24 -93 -12 -45 6 -129 11 -186 11 -67 0 -102 4 -98 10 3 6 21
10 38 11 32 0 32 0 7 12 -14 6 -27 12 -29 14 -11 8 395 650 664 1048 468 696
893 1252 1394 1825 154 175 360 389 376 390 5 0 19 10 30 23 11 13 34 32 50
44 17 12 37 33 44 47 8 14 21 28 30 31 9 3 34 22 56 43 22 20 76 69 120 107
151 132 266 235 330 293 28 26 91 82 140 125 50 44 121 107 160 141 110 96
199 182 318 306 61 63 169 172 239 243 l128 127 -123 0 c-113 -1 -125 -3 -157
-25z m5351 -622 c-39 -69 -458 -500 -901 -928 -558 -537 -695 -666 -1375
-1290 -403 -370 -406 -372 -610 -562 -180 -167 -678 -628 -915 -847 -101 -94
-286 -266 -410 -381 -207 -194 -300 -275 -313 -275 -3 0 -3 10 0 23 13 50 570
813 758 1037 40 47 128 157 196 245 171 221 524 659 566 703 7 7 13 10 13 5
-1 -8 -52 -78 -114 -157 -31 -39 -29 -64 3 -28 24 28 31 28 31 -3 0 -14 -4
-25 -10 -25 -5 0 -10 -9 -10 -20 0 -11 4 -20 8 -20 4 0 14 9 22 20 8 11 22 20
32 20 10 0 18 4 18 9 0 5 15 13 32 17 18 3 40 15 49 25 9 11 26 19 37 19 11 0
22 5 24 11 3 9 10 9 27 0 20 -11 26 -8 64 33 25 29 49 46 63 46 29 0 75 20 94
41 23 25 56 39 89 39 17 0 31 5 31 10 0 6 9 10 20 10 11 0 20 7 20 16 0 11 6
13 19 9 11 -3 25 1 34 10 9 8 18 15 22 15 4 0 24 18 45 40 21 22 43 40 49 40
27 0 109 58 176 126 41 40 78 74 82 74 11 0 73 54 73 63 0 4 23 29 51 55 29
26 66 63 83 82 17 19 49 50 70 70 21 19 168 163 326 320 615 611 810 793 1150
1074 69 57 161 135 205 174 44 39 81 71 83 71 1 1 -2 -7 -7 -16z m-2635 -1728
c-9 -9 -16 -13 -16 -8 0 12 22 34 28 28 2 -2 -3 -11 -12 -20z m-222 -380 c-4
-8 -11 -15 -16 -15 -6 0 -5 6 2 15 7 8 14 15 16 15 2 0 1 -7 -2 -15z m-70 -90
c-4 -8 -11 -15 -16 -15 -6 0 -5 6 2 15 7 8 14 15 16 15 2 0 1 -7 -2 -15z
m-4233 -1995 c112 -5 249 -14 304 -20 141 -14 448 -37 660 -50 99 -6 235 -20
303 -31 68 -11 180 -24 250 -29 70 -5 159 -14 198 -20 40 -6 134 -20 210 -30
77 -11 189 -28 249 -39 61 -12 137 -26 170 -32 70 -12 146 -30 159 -37 37 -21
-110 -29 -199 -11 -27 6 -120 14 -205 18 -85 4 -204 15 -265 24 -60 9 -204 30
-320 47 -115 16 -271 39 -345 50 -451 70 -623 87 -1062 105 -355 14 -662 31
-747 41 -31 4 -40 8 -30 15 19 12 417 11 670 -1z m-2093 -52 c-3 -7 -12 -13
-21 -12 -9 0 -43 2 -74 4 l-58 3 60 7 c33 4 68 7 78 8 11 1 17 -3 15 -10z
m-308 -17 c0 -7 -23 -11 -54 -11 -30 0 -63 -3 -73 -7 -15 -5 -16 -4 -6 8 14
17 133 26 133 10z m3415 -101 c183 -23 310 -42 315 -47 17 -19 -419 33 -438
52 -8 7 42 6 123 -5z m575 -164 c0 -9 -30 -14 -35 -6 -4 6 3 10 14 10 12 0 21
-2 21 -4z m135 -32 c33 -8 83 -20 110 -25 28 -6 55 -15 60 -21 14 -15 -148 -2
-178 14 -12 6 -37 14 -56 17 -40 7 -55 31 -19 31 13 0 50 -7 83 -16z m968 -21
c-7 -2 -19 -2 -25 0 -7 3 -2 5 12 5 14 0 19 -2 13 -5z m200 -23 c45 -11 96
-25 113 -30 17 -6 44 -10 62 -10 17 0 34 -4 37 -10 8 -13 -39 -13 -79 -1 -28
9 -142 31 -254 51 -23 4 -45 10 -49 13 -14 14 92 6 170 -13z m274 -66 c-3 -3
-12 -4 -19 -1 -8 3 -5 6 6 6 11 1 17 -2 13 -5z m503 -200 c33 -12 33 -13 8
-13 -39 -1 -128 21 -128 32 0 11 69 0 120 -19z m190 -70 l35 -14 -35 6 c-19 4
-44 10 -55 15 l-20 8 20 0 c11 0 36 -7 55 -15z m-310 -4 c0 -5 -7 -7 -15 -4
-8 4 -15 8 -15 10 0 2 7 4 15 4 8 0 15 -4 15 -10z m95 -25 c22 -8 33 -14 25
-14 -8 -1 -33 6 -55 14 -22 8 -33 14 -25 14 8 1 33 -6 55 -14z m310 -46 c39
-12 77 -29 85 -37 13 -13 11 -14 -22 -9 -59 9 -206 57 -218 71 -13 17 53 6
155 -25z m2242 -635 c-3 -3 -12 -4 -19 -1 -8 3 -5 6 6 6 11 1 17 -2 13 -5z
m50 -20 c-3 -3 -12 -4 -19 -1 -8 3 -5 6 6 6 11 1 17 -2 13 -5z m-3627 -1034
c0 -5 -7 -10 -15 -10 -8 0 -15 5 -15 10 0 6 7 10 15 10 8 0 15 -4 15 -10z
m551 -52 c-15 -15 -27 -17 -79 -12 -34 4 -62 10 -62 14 0 16 17 20 86 18 70
-1 71 -2 55 -20z m599 -38 c0 -5 -2 -10 -4 -10 -3 0 -8 5 -11 10 -3 6 -1 10 4
10 6 0 11 -4 11 -10z m55 -10 c3 -5 -3 -10 -14 -10 -11 0 -23 5 -26 10 -3 6 3
10 14 10 11 0 23 -4 26 -10z m42 -16 c-3 -3 -12 -4 -19 -1 -8 3 -5 6 6 6 11 1
17 -2 13 -5z m-2927 -314 c0 -5 -5 -10 -11 -10 -5 0 -7 5 -4 10 3 6 8 10 11
10 2 0 4 -4 4 -10z m-112 -53 c-15 -12 -105 -53 -200 -91 -95 -38 -197 -80
-226 -93 -30 -14 -56 -22 -58 -20 -5 5 201 107 215 107 3 0 40 17 81 37 71 35
183 80 205 81 6 1 -2 -9 -17 -21z m-498 -211 c0 -2 -7 -7 -16 -10 -8 -3 -12
-2 -9 4 6 10 25 14 25 6z m-848 -408 c-7 -7 -12 -8 -12 -2 0 14 12 26 19 19 2
-3 -1 -11 -7 -17z m-1217 -789 c-56 -11 -87 -11 -80 1 3 6 32 9 63 9 57 -1 57
-1 17 -10z m-847 -641 c-2 -16 -16 -27 -48 -39 -30 -11 -46 -23 -48 -37 -2
-11 -22 -32 -45 -48 -56 -36 -184 -131 -226 -167 -19 -17 -37 -25 -42 -20 -10
10 30 210 54 278 l15 40 122 2 c67 1 125 4 128 7 3 3 25 6 49 6 40 0 44 -2 41
-22z m2559 -54 c12 -3 25 -15 28 -25 5 -15 9 -16 25 -7 62 39 152 -87 141
-197 -5 -57 -68 -95 -156 -95 l-38 0 27 -25 c47 -43 30 -107 -38 -139 -54 -26
-90 -21 -121 16 -21 25 -25 38 -21 62 7 34 33 66 53 66 7 0 13 4 13 9 0 5 -24
13 -54 16 -100 13 -156 69 -156 157 0 38 6 54 30 82 61 69 178 104 267 80z
m-381 -346 c-9 -51 -22 -158 -31 -238 -20 -192 -26 -230 -35 -230 -28 0 -87
558 -61 574 6 4 11 1 11 -7 0 -19 91 -13 105 8 21 31 25 -14 11 -107z m203
-244 c58 -74 -26 -169 -109 -124 -22 12 -42 64 -33 88 23 64 104 85 142 36z
m4701 -1179 c108 -17 149 -30 133 -46 -5 -5 -53 -1 -119 11 -60 11 -120 20
-134 20 -14 0 -34 7 -44 15 -19 14 -17 15 20 15 22 0 87 -7 144 -15z m-3958
-16 c-48 -19 -518 -53 -527 -39 -10 16 20 24 130 36 135 14 431 17 397 3z
m3834 -20 c60 -17 137 -37 171 -45 88 -20 118 -33 107 -44 -11 -11 -14 -10
-221 34 -164 35 -195 48 -178 76 8 13 -6 15 121 -21z m-82 -39 c70 -24 90 -29
206 -60 103 -28 128 -45 50 -35 -96 13 -332 63 -343 74 -12 12 -2 41 15 41 6
0 39 -9 72 -20z m35 -89 c132 -40 182 -60 150 -61 -13 0 -138 24 -239 45 -8 2
-19 4 -25 5 -19 2 -47 29 -40 39 9 16 11 15 154 -28z"/>
<path d="M17400 19981 c-7 -11 -17 -18 -21 -15 -4 2 -10 -5 -14 -15 -3 -11
-15 -23 -26 -26 -10 -4 -19 -11 -19 -17 0 -12 -39 -48 -52 -48 -4 0 -8 -7 -8
-15 0 -9 -6 -23 -12 -31 -25 -31 -163 -164 -170 -164 -4 0 -5 -13 -1 -30 3
-19 1 -30 -6 -30 -6 0 -11 -9 -11 -21 0 -12 -13 -34 -30 -49 -16 -15 -30 -36
-30 -45 0 -9 -6 -22 -12 -30 -7 -7 -26 -30 -43 -50 -16 -21 -45 -53 -62 -71
-18 -19 -33 -40 -33 -49 0 -8 -4 -15 -9 -15 -5 0 -12 -9 -16 -19 -3 -11 -15
-23 -26 -26 -10 -4 -19 -13 -19 -21 0 -8 -17 -33 -37 -55 -21 -23 -42 -48 -47
-57 -5 -10 -22 -29 -38 -44 -15 -14 -28 -31 -28 -38 0 -6 -7 -18 -15 -26 -8
-9 -15 -12 -15 -8 0 4 -10 -6 -22 -22 -13 -16 -36 -43 -53 -61 -16 -18 -39
-44 -50 -58 -11 -15 -26 -33 -32 -40 -7 -8 -13 -17 -13 -22 0 -5 -43 -52 -95
-106 -52 -54 -95 -100 -95 -102 0 -3 -26 -32 -57 -65 -31 -34 -64 -71 -73 -84
-8 -13 -34 -43 -57 -66 -24 -23 -43 -47 -43 -53 0 -6 -26 -36 -57 -67 -32 -31
-92 -94 -133 -139 -101 -111 -233 -246 -297 -301 -51 -45 -131 -115 -201 -177
-21 -18 -43 -33 -49 -33 -7 0 -13 -6 -13 -14 0 -8 -17 -27 -37 -42 -53 -41
-185 -157 -207 -183 -11 -11 -22 -21 -26 -21 -10 0 -280 -271 -280 -280 0 -4
-10 -14 -22 -22 -31 -20 -236 -226 -248 -248 -10 -18 -4 -50 9 -50 3 0 4 -21
2 -47 l-3 -46 53 7 c30 3 91 12 137 19 61 10 82 11 82 2 0 -6 -26 -40 -57 -76
-113 -125 -32 -52 427 390 157 151 364 352 460 446 96 94 335 323 530 510 517
496 892 857 1080 1040 375 365 978 960 1014 1001 l39 44 -399 0 c-384 0 -400
-1 -414 -19z"/>
<path d="M3233 19200 c-42 -25 -63 -68 -63 -129 0 -63 27 -97 116 -147 82 -46
114 -83 114 -134 0 -59 -35 -95 -93 -95 -66 0 -102 38 -121 128 -11 49 -26 29
-26 -35 0 -35 -3 -73 -6 -85 -5 -17 -2 -23 10 -23 9 0 16 7 16 15 0 8 2 15 4
15 2 0 20 -7 39 -15 54 -23 125 -19 170 8 55 33 77 72 77 134 0 44 -5 58 -31
87 -17 20 -64 54 -106 77 -85 47 -112 87 -96 142 12 42 54 71 89 63 35 -9 80
-57 87 -96 12 -55 27 -32 27 40 0 69 -5 81 -27 59 -9 -9 -20 -9 -44 0 -48 17
-100 13 -136 -9z"/>
<path d="M4580 19179 c-14 -26 3 -49 35 -49 25 0 39 23 30 51 -9 26 -51 25
-65 -2z"/>
<path d="M3755 19020 c-29 -12 -62 -50 -80 -92 -48 -117 28 -248 144 -248 26
0 56 7 68 15 31 21 65 72 54 79 -5 4 -19 -9 -31 -28 -35 -57 -109 -57 -146 -1
-21 32 -34 101 -27 138 l6 27 98 0 c96 0 99 1 99 23 0 69 -107 120 -185 87z
m95 -20 c11 -11 20 -33 20 -50 l0 -30 -65 0 c-36 0 -65 2 -65 5 0 19 31 75 47
84 27 15 41 13 63 -9z"/>
<path d="M4195 19015 c-16 -8 -43 -15 -60 -15 l-30 -2 33 -9 32 -10 0 -144 0
-144 -27 -4 c-16 -2 13 -4 62 -5 51 0 79 3 65 7 l-25 7 0 136 c0 120 2 138 19
157 26 29 34 26 32 -11 -1 -29 2 -33 26 -36 38 -4 56 30 33 64 -19 30 -67 32
-95 4 l-20 -20 0 20 c0 23 -4 23 -45 5z"/>
<path d="M19895 15768 c-235 -215 -522 -450 -842 -692 -101 -76 -183 -140
-183 -142 0 -12 255 177 465 345 355 282 703 587 663 581 -2 -1 -48 -42 -103
-92z"/>
<path d="M9175 15330 c-27 -10 -67 -19 -87 -19 -44 -1 -52 -21 -8 -21 16 0 41
-6 57 -12 l27 -13 -34 -6 -35 -6 29 -12 c16 -6 56 -14 90 -17 62 -5 62 -5 -6
26 -17 7 -3 9 52 5 41 -3 104 -8 140 -10 63 -4 63 -4 20 6 -25 6 -66 13 -92
16 -27 3 -48 9 -48 14 0 5 5 9 12 9 6 0 8 3 5 7 -4 3 -31 6 -59 6 l-53 -1 45
9 c25 5 72 12 105 15 43 5 54 9 40 15 -35 14 -148 7 -200 -11z"/>
<path d="M9313 15203 c9 -2 23 -2 30 0 6 3 -1 5 -18 5 -16 0 -22 -2 -12 -5z"/>
<path d="M9365 15190 c3 -5 19 -10 36 -10 16 0 29 5 29 10 0 6 -16 10 -36 10
-21 0 -33 -4 -29 -10z"/>
<path d="M10748 15103 c7 -3 16 -2 19 1 4 3 -2 6 -13 5 -11 0 -14 -3 -6 -6z"/>
<path d="M10566 15091 c10 -9 164 -42 192 -40 24 1 -30 17 -118 34 -88 18 -87
17 -74 6z"/>
<path d="M7097 15033 c-19 -5 -18 -29 1 -27 7 1 27 2 45 3 l32 1 -29 15 c-15
8 -29 14 -30 14 0 -1 -9 -3 -19 -6z"/>
<path d="M7415 15030 c-13 -6 16 -9 79 -9 55 -1 97 1 95 4 -9 9 -154 13 -174
5z"/>
<path d="M7260 15020 c36 -12 98 -12 105 0 4 6 -19 10 -62 9 -49 -1 -61 -3
-43 -9z"/>
<path d="M7668 15023 c34 -2 88 -2 120 0 31 2 3 3 -63 3 -66 0 -92 -1 -57 -3z"/>
<path d="M7980 15020 c74 -11 216 -10 175 0 -16 4 -75 8 -130 7 -88 0 -93 -1
-45 -7z"/>
<path d="M10650 15010 c8 -5 26 -10 40 -10 20 0 22 2 10 10 -8 5 -26 10 -40
10 -20 0 -22 -2 -10 -10z"/>
<path d="M10738 14993 c7 -3 16 -2 19 1 4 3 -2 6 -13 5 -11 0 -14 -3 -6 -6z"/>
<path d="M4963 14983 c9 -2 25 -2 35 0 9 3 1 5 -18 5 -19 0 -27 -2 -17 -5z"/>
<path d="M18795 14889 c-178 -123 -239 -168 -195 -144 31 17 251 169 256 177
9 14 1 10 -61 -33z"/>
<path d="M11635 14845 c6 -2 35 -11 65 -19 30 -8 93 -26 140 -39 91 -27 160
-41 160 -33 0 5 -109 38 -185 57 -22 6 -53 14 -70 19 -34 10 -125 22 -110 15z"/>
<path d="M11845 14841 c33 -14 112 -25 100 -13 -5 6 -35 13 -65 17 -36 3 -48
2 -35 -4z"/>
<path d="M18539 14709 c-23 -19 -23 -20 -2 -10 12 6 25 16 28 21 10 16 -1 12
-26 -11z"/>
<path d="M18484 14675 c-10 -8 -14 -15 -8 -15 6 0 17 7 24 15 16 19 9 19 -16
0z"/>
<path d="M18424 14634 c-18 -14 -18 -15 4 -4 12 6 22 13 22 15 0 8 -5 6 -26
-11z"/>
<path d="M18358 14594 c-21 -13 -38 -27 -38 -30 0 -7 59 28 72 44 14 17 9 15
-34 -14z"/>
<path d="M18225 14510 c-3 -6 1 -7 9 -4 18 7 21 14 7 14 -6 0 -13 -4 -16 -10z"/>
<path d="M19300 14495 c-14 -8 -20 -14 -15 -14 6 0 21 6 35 14 14 8 21 14 15
14 -5 0 -21 -6 -35 -14z"/>
<path d="M18184 14484 c-18 -14 -18 -15 4 -4 12 6 22 13 22 15 0 8 -5 6 -26
-11z"/>
<path d="M19151 14430 c-104 -45 -133 -60 -119 -60 15 0 238 99 238 105 0 7 4
9 -119 -45z"/>
<path d="M18082 14428 c-18 -11 -31 -23 -28 -25 2 -3 22 7 43 21 44 31 33 34
-15 4z"/>
<path d="M18014 14384 c-18 -14 -18 -15 4 -4 12 6 22 13 22 15 0 8 -5 6 -26
-11z"/>
<path d="M17964 14354 c-18 -14 -18 -15 4 -4 12 6 22 13 22 15 0 8 -5 6 -26
-11z"/>
<path d="M18925 14331 c-22 -11 -37 -20 -34 -20 10 -1 79 29 79 34 0 7 0 7
-45 -14z"/>
<path d="M18700 14240 c-18 -12 -2 -12 25 0 13 6 15 9 5 9 -8 0 -22 -4 -30 -9z"/>
<path d="M1530 14219 c0 -5 5 -7 10 -4 6 3 10 8 10 11 0 2 -4 4 -10 4 -5 0
-10 -5 -10 -11z"/>
<path d="M18318 14093 c7 -3 16 -2 19 1 4 3 -2 6 -13 5 -11 0 -14 -3 -6 -6z"/>
<path d="M18258 14073 c7 -3 16 -2 19 1 4 3 -2 6 -13 5 -11 0 -14 -3 -6 -6z"/>
<path d="M18048 14003 c7 -3 16 -2 19 1 4 3 -2 6 -13 5 -11 0 -14 -3 -6 -6z"/>
<path d="M17988 13983 c7 -3 16 -2 19 1 4 3 -2 6 -13 5 -11 0 -14 -3 -6 -6z"/>
<path d="M17928 13963 c7 -3 16 -2 19 1 4 3 -2 6 -13 5 -11 0 -14 -3 -6 -6z"/>
<path d="M17858 13943 c7 -3 16 -2 19 1 4 3 -2 6 -13 5 -11 0 -14 -3 -6 -6z"/>
<path d="M17538 13853 c7 -3 16 -2 19 1 4 3 -2 6 -13 5 -11 0 -14 -3 -6 -6z"/>
<path d="M17458 13833 c6 -2 18 -2 25 0 6 3 1 5 -13 5 -14 0 -19 -2 -12 -5z"/>
<path d="M17388 13813 c7 -3 16 -2 19 1 4 3 -2 6 -13 5 -11 0 -14 -3 -6 -6z"/>
<path d="M17315 13800 c-28 -7 -28 -8 -5 -9 14 0 32 4 40 9 17 11 8 11 -35 0z"/>
<path d="M17168 13763 c7 -3 16 -2 19 1 4 3 -2 6 -13 5 -11 0 -14 -3 -6 -6z"/>
<path d="M17128 13753 c7 -3 16 -2 19 1 4 3 -2 6 -13 5 -11 0 -14 -3 -6 -6z"/>
<path d="M16878 13703 c6 -2 18 -2 25 0 6 3 1 5 -13 5 -14 0 -19 -2 -12 -5z"/>
<path d="M16448 13633 c7 -3 16 -2 19 1 4 3 -2 6 -13 5 -11 0 -14 -3 -6 -6z"/>
<path d="M19945 13262 c-58 -100 -141 -254 -125 -232 33 45 181 303 178 310
-2 4 -25 -31 -53 -78z"/>
<path d="M6060 13260 c-12 -16 -19 -30 -16 -30 2 0 14 14 26 30 12 17 19 30
16 30 -2 0 -14 -13 -26 -30z"/>
<path d="M5990 13159 c-12 -16 -21 -32 -18 -34 2 -2 13 12 26 31 28 42 21 45
-8 3z"/>
<path d="M5793 12880 c-512 -736 -683 -985 -915 -1330 -389 -579 -967 -1474
-925 -1430 8 8 63 92 122 185 263 414 730 1113 1365 2040 135 198 280 410 320
470 41 61 89 130 108 154 35 47 56 81 48 81 -3 0 -58 -76 -123 -170z"/>
<path d="M19789 12988 c-6 -13 -23 -43 -37 -68 -14 -25 -21 -40 -15 -35 15 14
76 125 69 125 -3 0 -11 -10 -17 -22z"/>
<path d="M8218 12849 c-20 -52 -39 -103 -44 -113 -5 -13 -4 -17 4 -12 14 8 85
192 80 207 -2 7 -20 -30 -40 -82z"/>
<path d="M19705 12840 c-9 -16 -13 -30 -11 -30 3 0 12 14 21 30 9 17 13 30 11
30 -3 0 -12 -13 -21 -30z"/>
<path d="M9391 12596 c-9 -10 -9 -16 -1 -21 12 -7 40 11 40 26 0 14 -26 10
-39 -5z"/>
<path d="M8100 12534 c0 -8 5 -12 10 -9 6 3 10 10 10 16 0 5 -4 9 -10 9 -5 0
-10 -7 -10 -16z"/>
<path d="M19507 12497 c-20 -25 -33 -48 -29 -51 14 -8 74 60 70 80 -2 13 -12
7 -41 -29z"/>
<path d="M14416 12315 c4 -8 14 -15 23 -15 9 0 27 -7 39 -16 12 -8 30 -14 40
-11 13 3 10 7 -13 16 -16 7 -32 16 -35 20 -3 4 -17 11 -32 15 -22 5 -26 3 -22
-9z"/>
<path d="M14360 12260 c0 -5 6 -10 14 -10 8 0 18 5 21 10 3 6 -3 10 -14 10
-12 0 -21 -4 -21 -10z"/>
<path d="M514 12212 c-12 -26 -28 -63 -37 -82 -8 -19 -24 -56 -35 -81 -12 -25
-30 -70 -42 -100 -11 -30 -26 -65 -32 -79 -6 -14 -14 -34 -18 -45 -5 -11 -17
-40 -28 -65 -31 -72 -72 -190 -72 -208 1 -26 25 24 76 156 25 64 52 133 61
152 8 19 19 44 23 55 14 37 62 149 79 190 32 72 53 133 50 144 -2 5 -14 -12
-25 -37z"/>
<path d="M14546 12252 c12 -11 64 -33 64 -27 0 5 -56 35 -67 35 -4 0 -3 -4 3
-8z"/>
<path d="M3881 12009 c-28 -57 -49 -105 -46 -107 2 -2 26 42 54 99 28 57 49
105 47 107 -2 2 -27 -43 -55 -99z"/>
<path d="M14810 12106 c0 -9 140 -76 159 -76 23 0 -11 21 -79 49 -30 13 -61
25 -67 28 -7 3 -13 2 -13 -1z"/>
<path d="M7861 12034 c-18 -8 -31 -17 -29 -20 6 -5 78 24 78 31 0 8 -12 5 -49
-11z"/>
<path d="M7710 11970 c-8 -5 -10 -10 -5 -10 6 0 17 5 25 10 8 5 11 10 5 10 -5
0 -17 -5 -25 -10z"/>
<path d="M15145 11950 c3 -5 11 -10 16 -10 6 0 7 5 4 10 -3 6 -11 10 -16 10
-6 0 -7 -4 -4 -10z"/>
<path d="M3816 11873 c-6 -14 -5 -15 5 -6 7 7 10 15 7 18 -3 3 -9 -2 -12 -12z"/>
<path d="M15328 11868 c5 -5 16 -8 23 -6 8 3 3 7 -10 11 -17 4 -21 3 -13 -5z"/>
<path d="M7425 11860 c-3 -6 1 -7 9 -4 18 7 21 14 7 14 -6 0 -13 -4 -16 -10z"/>
<path d="M7305 11817 c-27 -10 -189 -79 -340 -145 -107 -47 -170 -81 -153 -81
9 -1 75 25 145 58 70 32 139 62 153 66 43 13 235 96 245 106 12 12 -11 10 -50
-4z"/>
<path d="M6620 11515 c-51 -25 -90 -48 -87 -51 6 -6 158 59 191 81 43 31 -11
15 -104 -30z"/>
<path d="M2 10850 c0 -14 2 -19 5 -12 2 6 2 18 0 25 -3 6 -5 1 -5 -13z"/>
<path d="M5942 10539 c17 -11 125 -12 132 -1 2 4 -29 8 -70 8 -43 1 -69 -3
-62 -7z"/>
<path d="M3921 10077 c-8 -12 -21 -32 -29 -44 -8 -13 -12 -23 -9 -23 7 0 59
81 55 85 -2 2 -10 -6 -17 -18z"/>
<path d="M3596 9919 c-15 -34 -25 -63 -23 -65 2 -2 16 24 30 58 15 34 25 63
23 65 -2 2 -15 -24 -30 -58z"/>
<path d="M3552 9815 c-17 -37 -14 -45 4 -12 9 16 14 31 11 33 -2 2 -9 -7 -15
-21z"/>
<path d="M3519 9428 c-23 -40 -49 -83 -57 -95 -8 -13 -12 -23 -9 -23 3 0 29
39 58 88 63 105 61 102 56 102 -3 0 -24 -33 -48 -72z"/>
<path d="M3382 9403 c-45 -106 -123 -316 -119 -320 3 -2 37 78 76 178 40 100
70 183 68 186 -2 2 -13 -18 -25 -44z"/>
<path d="M3399 9228 c-7 -13 -19 -34 -27 -48 -14 -24 -13 -24 3 -5 20 24 48
75 41 75 -3 0 -11 -10 -17 -22z"/>
<path d="M3167 8852 c-26 -56 -47 -110 -47 -120 1 -9 23 30 51 88 27 57 48
111 47 119 -2 9 -24 -31 -51 -87z"/>
<path d="M5396 8367 c3 -10 9 -15 12 -12 3 3 0 11 -7 18 -10 9 -11 8 -5 -6z"/>
<path d="M5837 7463 c-9 -26 -19 -66 -22 -88 -11 -71 22 -13 35 62 13 79 8 91
-13 26z"/>
<path d="M13320 7089 c0 -20 21 -49 35 -49 8 0 15 -7 15 -15 0 -26 17 -17 39
21 12 19 21 38 21 42 0 4 -25 8 -55 9 -33 2 -55 -1 -55 -8z"/>
<path d="M7343 5473 c-13 -2 -23 -10 -23 -17 0 -12 89 -76 107 -76 10 0 9 34
-2 67 -6 18 -37 36 -55 32 -3 -1 -15 -4 -27 -6z"/>
<path d="M7221 5399 c-13 -5 -22 -12 -19 -14 3 -3 20 1 39 9 37 17 19 21 -20
5z"/>
<path d="M7746 5325 c10 -8 23 -15 28 -15 6 0 1 7 -10 15 -10 8 -23 15 -28 15
-6 0 -1 -7 10 -15z"/>
<path d="M7820 5281 c0 -11 73 -71 86 -71 8 0 121 -73 134 -87 9 -9 -75 31
-90 43 -8 7 -27 17 -42 23 -15 5 -57 28 -93 51 -73 44 -75 45 -75 30 0 -5 5
-10 11 -10 5 0 37 -18 69 -40 32 -22 61 -40 65 -40 3 0 24 -11 46 -26 38 -24
53 -33 147 -85 20 -12 49 -30 64 -40 14 -11 31 -19 37 -19 6 0 11 -4 11 -9 0
-5 10 -12 23 -15 21 -7 21 -7 2 -17 -15 -7 -12 -8 13 -3 31 5 46 -9 20 -19 -7
-2 -1 -3 15 -1 27 4 38 -10 15 -19 -8 -3 -6 -6 5 -6 9 -1 17 -6 17 -12 0 -7
13 -9 38 -6 20 3 29 3 20 1 -10 -3 -18 -9 -18 -12 0 -8 48 -32 63 -32 5 0 15
-7 24 -15 14 -14 13 -15 -13 -9 -16 4 -37 11 -46 15 -22 12 -28 11 -28 -1 0
-5 7 -10 15 -10 8 0 33 -18 57 -40 24 -22 55 -42 70 -45 15 -4 30 -11 33 -16
4 -5 19 -9 35 -9 30 0 111 -26 187 -61 24 -10 47 -19 52 -19 15 0 21 -73 7
-90 -7 -8 -11 -21 -9 -27 3 -8 -5 -13 -20 -13 -31 0 -57 -27 -34 -36 11 -4 3
-22 -39 -82 -71 -102 -107 -162 -102 -167 2 -3 40 37 84 87 139 160 123 147
174 140 28 -5 40 -10 32 -15 -14 -10 -92 -127 -92 -140 0 -16 17 2 61 64 39
54 71 94 140 177 16 18 29 22 81 22 34 0 100 -7 147 -15 139 -25 141 -25 141
-16 0 12 -110 51 -188 67 -13 3 -40 13 -60 24 -20 11 -42 20 -50 20 -7 0 -36
14 -65 30 -30 17 -59 30 -65 30 -23 0 -182 83 -181 94 4 32 -17 56 -67 80 -30
14 -60 26 -66 26 -6 0 -57 23 -113 50 -56 28 -108 50 -115 50 -17 0 -189 92
-309 165 -52 32 -109 59 -126 60 -18 2 -55 15 -84 29 -28 15 -51 22 -51 17z
m840 -535 c0 -3 -4 -8 -10 -11 -5 -3 -10 -1 -10 4 0 6 5 11 10 11 6 0 10 -2
10 -4z m150 -56 c0 -5 -7 -10 -16 -10 -8 0 -12 5 -9 10 3 6 10 10 16 10 5 0 9
-4 9 -10z m160 -130 c0 -5 -6 -10 -14 -10 -8 0 -18 5 -21 10 -3 6 3 10 14 10
12 0 21 -4 21 -10z m-40 -50 c0 -5 -9 -10 -20 -10 -11 0 -20 5 -20 10 0 6 9
10 20 10 11 0 20 -4 20 -10z"/>
<path d="M8395 5060 c8 -12 99 -60 115 -60 23 0 -2 20 -56 44 -63 29 -68 30
-59 16z"/>
<path d="M8165 4980 c3 -5 8 -10 11 -10 2 0 4 5 4 10 0 6 -5 10 -11 10 -5 0
-7 -4 -4 -10z"/>
<path d="M8238 4903 c7 -3 16 -2 19 1 4 3 -2 6 -13 5 -11 0 -14 -3 -6 -6z"/>
<path d="M8278 4883 c7 -3 16 -2 19 1 4 3 -2 6 -13 5 -11 0 -14 -3 -6 -6z"/>
<path d="M12730 4850 c-8 -4 -35 -13 -60 -20 -25 -7 -53 -16 -62 -21 -10 -5
-29 -9 -43 -9 -14 0 -25 -4 -25 -10 0 -5 11 -10 24 -10 14 0 28 5 31 10 3 6
18 10 32 10 29 0 164 39 178 51 12 12 -55 11 -75 -1z"/>
<path d="M12470 4770 c0 -5 9 -10 19 -10 11 0 23 5 26 10 4 6 -5 10 -19 10
-14 0 -26 -4 -26 -10z"/>
<path d="M12355 4743 c-27 -8 -67 -19 -87 -24 -21 -5 -57 -14 -80 -20 -24 -6
-77 -15 -118 -20 -41 -5 -84 -14 -95 -18 -42 -18 -271 -59 -365 -65 -71 -5
-72 -5 -27 5 26 6 47 15 47 20 0 5 16 9 36 9 20 0 43 7 52 17 16 15 13 16 -42
9 -32 -3 -67 -11 -77 -17 -11 -5 -45 -12 -77 -14 -117 -8 -177 -18 -193 -31
-10 -9 -30 -12 -66 -8 -46 6 -51 5 -56 -16 -6 -22 -5 -23 51 -15 153 19 179
23 205 29 15 4 27 3 27 -2 0 -8 -111 -32 -250 -54 -36 -6 -69 -15 -75 -20 -23
-23 351 26 668 87 98 19 181 34 185 34 30 -5 102 3 98 10 -8 12 38 41 64 41
11 0 28 4 38 9 9 5 50 15 89 21 40 7 75 16 79 21 3 5 14 9 25 9 10 0 19 5 19
10 0 12 -12 11 -75 -7z"/>
<path d="M11955 4710 c-3 -5 -17 -10 -31 -10 -16 0 -23 -4 -18 -11 3 -6 20 -9
38 -5 76 13 95 19 90 27 -7 12 -71 11 -79 -1z"/>
<path d="M11800 4676 c0 -10 28 -13 41 -5 10 6 7 9 -13 9 -16 0 -28 -2 -28 -4z"/>
<path d="M12148 4603 c6 -2 18 -2 25 0 6 3 1 5 -13 5 -14 0 -19 -2 -12 -5z"/>
<path d="M11086 4551 c-5 -8 84 -3 93 5 2 2 -16 4 -42 4 -25 0 -48 -4 -51 -9z"/>
<path d="M11125 4509 c-10 -15 3 -25 16 -12 7 7 7 13 1 17 -6 3 -14 1 -17 -5z"/>
<path d="M4780 884 c0 -9 135 -405 170 -499 10 -27 35 -97 55 -155 20 -58 40
-114 45 -125 5 -11 14 -37 20 -57 11 -36 26 -55 36 -46 2 3 -19 65 -47 139
-50 133 -192 524 -244 672 -24 68 -35 90 -35 71z"/>
<path d="M3410 534 c25 -26 50 -54 57 -61 6 -7 15 -13 18 -13 10 0 -95 114
-109 119 -6 2 9 -18 34 -45z"/>
<path d="M3577 355 c138 -150 339 -348 351 -344 5 2 -92 103 -217 224 -143
139 -192 183 -134 120z"/>
<path d="M4950 254 c0 -22 69 -237 79 -247 7 -7 14 -7 20 -2 6 6 -8 54 -39
128 -45 112 -60 142 -60 121z"/>
</g>
</svg>
